<svg width="26" height="29" viewBox="0 0 26 29" fill="none" xmlns="http://www.w3.org/2000/svg">
<path fill-rule="evenodd" clip-rule="evenodd" d="M17.6429 6.34375C17.6429 5.14199 17.1537 3.98945 16.283 3.13967C15.4123 2.2899 14.2314 1.8125 13 1.8125C11.7686 1.8125 10.5877 2.2899 9.717 3.13967C8.8463 3.98945 8.35714 5.14199 8.35714 6.34375V7.25H17.6429V6.34375ZM19.5 6.34375V7.25H26V25.375C26 26.3364 25.6087 27.2584 24.9121 27.9383C24.2155 28.6181 23.2708 29 22.2857 29H3.71429C2.7292 29 1.78445 28.6181 1.08789 27.9383C0.391325 27.2584 0 26.3364 0 25.375V7.25H6.5V6.34375C6.5 4.66128 7.18482 3.04773 8.40381 1.85804C9.62279 0.668357 11.2761 0 13 0C14.7239 0 16.3772 0.668357 17.5962 1.85804C18.8152 3.04773 19.5 4.66128 19.5 6.34375ZM24.1429 25.375V9.0625H1.85714V25.375C1.85714 25.8557 2.05281 26.3167 2.40109 26.6566C2.74937 26.9965 3.22174 27.1875 3.71429 27.1875H22.2857C22.7783 27.1875 23.2506 26.9965 23.5989 26.6566C23.9472 26.3167 24.1429 25.8557 24.1429 25.375ZM13 14.4873C16.0903 11.3861 23.8179 16.8127 13 23.7891C2.18214 16.8109 9.90971 11.3861 13 14.4873Z" fill="#77706D"/>
</svg>
