<svg width="274" height="67" viewBox="0 0 274 67" fill="none" xmlns="http://www.w3.org/2000/svg">
<g clip-path="url(#clip0_84_40)">
<path d="M1.9466 21.9212C3.1493 19.6149 4.96947 17.6883 7.20383 16.3567C9.43819 15.0251 11.9987 14.3408 14.5995 14.3803C16.6522 14.3913 18.6789 14.8397 20.5446 15.6956C22.3608 16.4694 23.9617 17.6731 25.2094 19.203V4.30533H31.6279V45.5961H25.1831V41.0014C24.0642 42.5723 22.5808 43.8481 20.8602 44.7193C18.8982 45.7165 16.7211 46.2163 14.5206 46.1748C11.9362 46.1823 9.40194 45.4621 7.20769 44.0967C4.96505 42.7146 3.14515 40.7431 1.9466 38.3972C0.631776 35.8327 -0.0307824 32.9837 0.0175334 30.1022C-0.0331544 27.2569 0.630072 24.4442 1.9466 21.9212ZM23.8678 24.7096C23.0706 23.2253 21.8818 21.9879 20.4306 21.1321C19.042 20.3212 17.4614 19.8972 15.8534 19.9045C14.2487 19.8964 12.6702 20.3107 11.2763 21.1057C9.8294 21.9361 8.63993 23.1498 7.83902 24.6131C6.92858 26.2997 6.47514 28.195 6.52375 30.111C6.48142 32.0542 6.93403 33.9763 7.83902 35.6965C8.63315 37.2122 9.83211 38.4779 11.3026 39.353C12.6787 40.1737 14.2511 40.607 15.8534 40.6069C17.4615 40.6145 19.0421 40.1906 20.4306 39.3793C21.8871 38.5184 23.0768 37.271 23.8678 35.7754C24.7747 34.0654 25.2275 32.1513 25.1831 30.2162C25.2286 28.2922 24.7755 26.3891 23.8678 24.6921V24.7096Z" fill="#77706D"/>
<path d="M43.2198 44.1581C40.8924 42.8534 38.9783 40.9211 37.6957 38.5813C36.3166 36.019 35.6248 33.143 35.6877 30.2337C35.6319 27.3299 36.3427 24.4627 37.7483 21.9212C39.062 19.5639 41.0169 17.6272 43.3864 16.3357C45.8531 15.0509 48.5933 14.38 51.3745 14.38C54.1558 14.38 56.896 15.0509 59.3626 16.3357C61.7351 17.6262 63.6931 19.563 65.0095 21.9212C66.4193 24.4646 67.1331 27.335 67.0789 30.2425C67.1342 33.1635 66.3979 36.045 64.9482 38.5813C63.5823 40.9536 61.5809 42.8972 59.1697 44.1932C56.6912 45.5243 53.9159 46.206 51.1027 46.1749C48.344 46.2031 45.6261 45.5077 43.2198 44.1581ZM55.7062 39.4582C57.1826 38.6431 58.3985 37.4272 59.2136 35.9508C60.1533 34.2016 60.6159 32.2359 60.5551 30.2513C60.6158 28.2708 60.1659 26.3081 59.2486 24.5518C58.4714 23.0798 57.2874 21.8623 55.8377 21.0444C54.4382 20.266 52.8619 19.8614 51.2606 19.8694C49.6702 19.8602 48.1049 20.2652 46.7185 21.0444C45.2902 21.8616 44.1343 23.0815 43.3952 24.5518C42.5285 26.3109 42.1069 28.256 42.1676 30.2162C42.1676 33.5307 43.0153 36.0911 44.7105 37.8974C45.521 38.779 46.5107 39.4769 47.6133 39.9442C48.7158 40.4115 49.9056 40.6375 51.1027 40.6069C52.7098 40.6204 54.2939 40.2251 55.7062 39.4582Z" fill="#77706D"/>
<path d="M89.8858 15.7833C91.5813 16.6019 93.064 17.8024 94.2174 19.2907V14.8187H100.636V46.1398C100.693 48.7691 100.09 51.3708 98.8822 53.707C97.708 55.9249 95.9134 57.753 93.7176 58.9681C91.2386 60.2898 88.4589 60.9454 85.6506 60.8708C81.9457 60.9983 78.2958 59.9484 75.2248 57.872C73.9031 56.974 72.7969 55.7943 71.9858 54.4176C71.1746 53.0409 70.6787 51.5015 70.5337 49.9102H76.847C77.3613 51.5638 78.4829 52.9612 79.9861 53.821C81.6961 54.8409 83.6603 55.3547 85.6506 55.3028C86.7931 55.3512 87.9337 55.168 89.0035 54.7641C90.0734 54.3603 91.0506 53.7442 91.8762 52.9529C93.4604 51.3863 94.2525 49.1152 94.2525 46.1398V41.0014C92.9952 42.6281 91.3762 43.9394 89.5239 44.8313C87.6715 45.7232 85.6368 46.1712 83.5812 46.1398C80.9892 46.167 78.4422 45.4618 76.2332 44.1055C73.9906 42.7234 72.1707 40.7518 70.9721 38.406C69.6573 35.8415 68.9947 32.9925 69.0431 30.111C68.9855 27.2642 69.6427 24.4484 70.9546 21.9212C72.1526 19.6243 73.9631 17.7039 76.1856 16.3729C78.4081 15.0419 80.9557 14.3522 83.5461 14.3803C85.7414 14.3313 87.9161 14.8126 89.8858 15.7833ZM92.9021 24.6921C92.1049 23.2078 90.9161 21.9704 89.4649 21.1145C88.0763 20.3036 86.4957 19.8797 84.8877 19.8869C83.283 19.8789 81.7045 20.2932 80.3106 21.0882C78.8637 21.9185 77.6742 23.1323 76.8733 24.5956C75.9751 26.2915 75.5368 28.193 75.6019 30.111C75.5596 32.0542 76.0122 33.9763 76.9172 35.6965C77.7113 37.2122 78.9102 38.4779 80.3807 39.353C81.7568 40.1737 83.3293 40.607 84.9316 40.6069C86.5396 40.6145 88.1203 40.1906 89.5087 39.3793C90.9652 38.5184 92.1549 37.271 92.946 35.7754C93.8528 34.0654 94.3057 32.1513 94.2612 30.2162C94.2933 28.2883 93.825 26.385 92.9021 24.6921Z" fill="#77706D"/>
<path d="M140.962 0V39.3705H130.01V23.5872H116.665V39.3705H105.722V0H116.665V14.8012H130.01V0H140.953H140.962Z" fill="#F8AC44"/>
<path d="M151.151 37.8097C148.711 36.5435 146.685 34.6053 145.311 32.2242C143.853 29.6156 143.123 26.6626 143.198 23.6749C143.129 20.7029 143.872 17.7683 145.346 15.187C146.742 12.825 148.775 10.9043 151.213 9.64534C153.828 8.35931 156.703 7.69055 159.617 7.69055C162.531 7.69055 165.407 8.35931 168.022 9.64534C170.465 10.9166 172.498 12.853 173.888 15.2309C175.354 17.7995 176.097 20.7177 176.036 23.6749C176.102 26.6549 175.36 29.5971 173.888 32.1891C172.5 34.584 170.455 36.5314 167.995 37.8009C165.375 39.0894 162.494 39.7602 159.574 39.7617C156.654 39.7632 153.773 39.0955 151.151 37.8097ZM163.383 28.5677C164.494 27.1889 165.042 25.4411 164.918 23.6749C165.039 21.9199 164.491 20.184 163.383 18.8172C162.913 18.2817 162.333 17.8546 161.682 17.5654C161.031 17.2762 160.325 17.1319 159.613 17.1424C158.904 17.1298 158.201 17.2733 157.554 17.5627C156.907 17.8522 156.332 18.2804 155.869 18.8172C154.776 20.1907 154.238 21.924 154.36 23.6749C154.235 25.4367 154.752 27.1842 155.816 28.594C156.274 29.1365 156.849 29.5688 157.497 29.8588C158.145 30.1487 158.85 30.2889 159.56 30.2688C160.283 30.2826 161 30.1373 161.661 29.8434C162.321 29.5494 162.909 29.114 163.383 28.5677Z" fill="#F8AC44"/>
<path d="M210.321 8.04071V39.3705H199.325V34.8986C198.354 36.3518 197.029 37.5345 195.476 38.3358C193.735 39.2363 191.797 39.6883 189.838 39.6511C188.222 39.7301 186.609 39.4475 185.116 38.8241C183.624 38.2006 182.289 37.252 181.21 36.0473C179.105 33.6447 178.053 30.377 178.053 26.2441V8.04071H188.943V24.8499C188.855 26.3864 189.364 27.8977 190.364 29.0675C191.377 30.0526 192.734 30.6037 194.147 30.6037C195.56 30.6037 196.918 30.0526 197.931 29.0675C198.915 27.8902 199.414 26.3819 199.325 24.8499V8.04071H210.33H210.321Z" fill="#F8AC44"/>
<path d="M220.124 38.3446C218.063 37.5155 216.251 36.1685 214.863 34.4338C213.597 32.8231 212.848 30.8666 212.715 28.822H223.325C223.379 29.2896 223.532 29.7404 223.772 30.1452C224.012 30.55 224.335 30.8999 224.719 31.172C225.568 31.7659 226.585 32.0731 227.621 32.0488C228.37 32.0881 229.112 31.8919 229.743 31.4876C229.983 31.3278 230.179 31.1113 230.315 30.8575C230.451 30.6036 230.523 30.3201 230.523 30.0321C230.525 29.6415 230.401 29.2607 230.171 28.9452C229.941 28.6297 229.616 28.3961 229.243 28.2784C227.865 27.7514 226.446 27.3408 224.999 27.0508C223.097 26.6906 221.227 26.1804 219.405 25.5251C217.91 24.9556 216.583 24.0176 215.547 22.7981C214.385 21.3461 213.798 19.5169 213.898 17.6597C213.88 15.8626 214.406 14.102 215.407 12.6091C216.516 11.0137 218.054 9.76442 219.843 9.00524C222.076 8.05621 224.486 7.59866 226.911 7.66366C231.003 7.66366 234.218 8.66912 236.556 10.68C238.892 12.6786 240.355 15.5103 240.634 18.5717H230.804C230.67 17.6627 230.201 16.8368 229.489 16.2568C228.685 15.6848 227.712 15.4006 226.727 15.4501C226.014 15.4056 225.304 15.5799 224.692 15.9499C224.468 16.1045 224.286 16.3134 224.163 16.5571C224.04 16.8008 223.981 17.0714 223.991 17.3441C224.004 17.726 224.135 18.0946 224.365 18.3992C224.596 18.7038 224.916 18.9295 225.28 19.0452C226.614 19.58 227.997 19.9824 229.41 20.2464C231.328 20.6523 233.211 21.2123 235.039 21.9212C236.577 22.5397 237.938 23.5275 239.003 24.7973C240.207 26.3277 240.812 28.2452 240.704 30.1899C240.717 31.9467 240.16 33.6605 239.117 35.0739C237.949 36.6094 236.384 37.7977 234.592 38.5112C232.401 39.3929 230.053 39.8195 227.691 39.7651C225.098 39.8117 222.523 39.3283 220.124 38.3446Z" fill="#F8AC44"/>
<path d="M273.603 25.9109H252.883C252.875 27.3158 253.38 28.6754 254.304 29.7339C254.726 30.1488 255.228 30.4739 255.78 30.6894C256.331 30.9049 256.921 31.0064 257.513 30.9878C258.338 31.0294 259.156 30.8161 259.855 30.3769C260.555 29.9376 261.103 29.2938 261.424 28.5327H273.094C272.625 30.6599 271.654 32.6442 270.262 34.3199C268.838 36.0359 267.038 37.401 265.001 38.3095C262.795 39.295 260.402 39.7915 257.986 39.7651C255.121 39.8184 252.288 39.1457 249.753 37.8097C247.375 36.5293 245.417 34.5899 244.115 32.2242C242.694 29.6026 241.981 26.6561 242.045 23.6749C241.97 20.7112 242.661 17.7784 244.053 15.1607C245.347 12.8042 247.296 10.8732 249.665 9.60149C252.227 8.32602 255.048 7.65781 257.91 7.64868C260.772 7.63956 263.597 8.28977 266.167 9.54888C268.518 10.7838 270.459 12.6757 271.753 14.9941C273.143 17.5526 273.838 20.4307 273.77 23.3417C273.77 24.2008 273.714 25.059 273.603 25.9109ZM262.599 20.6059C262.628 20.0126 262.523 19.4202 262.291 18.8735C262.058 18.3267 261.705 17.8398 261.257 17.4493C260.319 16.669 259.127 16.2603 257.907 16.3006C256.713 16.2503 255.541 16.6368 254.611 17.3879C253.69 18.2259 253.097 19.363 252.936 20.5972H262.581L262.599 20.6059Z" fill="#F8AC44"/>
<path d="M112.71 51.813C113.343 52.1605 113.868 52.6764 114.227 53.3036V51.3921H115.981V62.0721C115.994 62.9579 115.782 63.8325 115.367 64.615C114.963 65.3561 114.354 65.9651 113.613 66.3687C112.805 66.801 111.899 67.0184 110.983 67C109.763 67.0462 108.56 66.7055 107.545 66.0267C107.106 65.7265 106.734 65.3371 106.455 64.8839C106.175 64.4307 105.994 63.9238 105.923 63.3961H107.677C107.871 64.0136 108.278 64.5419 108.826 64.8868C109.472 65.2872 110.223 65.4884 110.983 65.4655C111.412 65.4849 111.841 65.4172 112.243 65.2666C112.645 65.1159 113.013 64.8853 113.324 64.5887C113.633 64.2504 113.87 63.8529 114.02 63.4203C114.171 62.9877 114.233 62.5291 114.201 62.0721V59.88C113.838 60.5003 113.322 61.0167 112.701 61.3794C111.984 61.7991 111.165 62.0116 110.334 61.9932C109.44 62.0047 108.561 61.764 107.798 61.2987C107.035 60.8334 106.419 60.1624 106.02 59.3626C105.576 58.4886 105.353 57.5192 105.371 56.5392C105.349 55.5615 105.572 54.594 106.02 53.7245C106.419 52.9483 107.026 52.2986 107.773 51.848C108.539 51.4012 109.412 51.1709 110.299 51.1816C111.145 51.169 111.979 51.3873 112.71 51.813ZM113.754 54.54C113.449 53.9758 112.99 53.5104 112.43 53.1984C111.886 52.8943 111.273 52.7346 110.65 52.7346C110.026 52.7346 109.413 52.8943 108.87 53.1984C108.325 53.5123 107.881 53.9745 107.589 54.5312C107.26 55.1671 107.097 55.876 107.116 56.5918C107.099 57.3159 107.262 58.0328 107.589 58.6787C107.896 59.244 108.359 59.7096 108.922 60.0203C109.455 60.3286 110.06 60.4891 110.676 60.485C111.291 60.4866 111.896 60.3263 112.43 60.0203C112.978 59.701 113.425 59.2328 113.718 58.6699C114.047 58.0305 114.209 57.3191 114.192 56.6006C114.218 55.8871 114.064 55.1784 113.745 54.54H113.754Z" fill="#77706D"/>
<path d="M128.213 51.3921V61.8441H126.459V60.3009C126.123 60.8373 125.643 61.2687 125.074 61.546C124.466 61.8476 123.796 62.0008 123.118 61.9932C122.357 62.0044 121.605 61.8298 120.926 61.4846C120.274 61.144 119.74 60.6155 119.392 59.9677C118.997 59.208 118.803 58.3595 118.831 57.5037V51.3658H120.584V57.2582C120.526 58.1216 120.806 58.9738 121.365 59.6345C121.642 59.9168 121.976 60.137 122.345 60.2806C122.714 60.4242 123.109 60.4879 123.504 60.4675C123.911 60.4859 124.317 60.4172 124.695 60.2659C125.073 60.1147 125.414 59.8845 125.696 59.5906C126.275 58.8922 126.561 57.9965 126.494 57.0916V51.3921H128.248H128.213Z" fill="#77706D"/>
<path d="M131.124 53.7684C131.523 52.9922 132.13 52.3424 132.878 51.8919C133.643 51.4451 134.516 51.2147 135.403 51.2255C136.236 51.2034 137.06 51.4064 137.788 51.813C138.418 52.1626 138.939 52.6782 139.296 53.3036V51.3921H141.05V61.8441H139.296V59.8975C138.932 60.515 138.412 61.026 137.788 61.3794C137.064 61.7896 136.243 61.9956 135.412 61.9757C134.525 61.9873 133.654 61.7503 132.895 61.2917C132.144 60.8222 131.537 60.1547 131.141 59.3627C130.698 58.4887 130.475 57.5192 130.493 56.5392C130.473 55.5778 130.69 54.6263 131.124 53.7684ZM138.849 54.54C138.554 53.9806 138.107 53.5157 137.56 53.1984C137.016 52.8943 136.403 52.7346 135.78 52.7346C135.157 52.7346 134.544 52.8943 134 53.1984C133.456 53.5123 133.012 53.9746 132.72 54.5312C132.391 55.1671 132.228 55.876 132.246 56.5918C132.229 57.3159 132.392 58.0329 132.72 58.6787C133.011 59.2401 133.455 59.7081 134 60.0291C134.533 60.3374 135.138 60.4979 135.754 60.4938C136.369 60.4954 136.974 60.3351 137.507 60.0291C138.056 59.7098 138.503 59.2416 138.796 58.6787C139.124 58.0393 139.287 57.3278 139.27 56.6093C139.306 55.8951 139.161 55.1834 138.849 54.54Z" fill="#77706D"/>
<path d="M147.065 51.7341C147.698 51.3856 148.412 51.213 149.134 51.2343V52.988H148.678C146.726 52.9938 145.75 54.0373 145.75 56.1183V61.8003H143.996V51.3921H145.75V53.0932C146.048 52.5226 146.505 52.0506 147.065 51.7341Z" fill="#77706D"/>
<path d="M151.134 53.7684C151.533 52.9924 152.14 52.3428 152.887 51.8919C153.659 51.4436 154.538 51.2133 155.43 51.2255C156.222 51.22 157.003 51.413 157.701 51.7867C158.361 52.1251 158.916 52.6376 159.306 53.2685V47.7269H161.06V61.8441H159.306V59.88C158.95 60.5024 158.436 61.0197 157.815 61.3794C157.095 61.7905 156.276 61.9967 155.448 61.9757C154.554 61.9872 153.675 61.7465 152.912 61.2812C152.149 60.8159 151.533 60.1449 151.134 59.3451C150.69 58.4711 150.467 57.5017 150.485 56.5217C150.473 55.5647 150.696 54.6195 151.134 53.7684ZM158.902 54.54C158.607 53.9806 158.161 53.5157 157.614 53.1984C157.07 52.8943 156.457 52.7346 155.834 52.7346C155.21 52.7346 154.597 52.8943 154.054 53.1984C153.507 53.5086 153.06 53.9678 152.765 54.5224C152.436 55.1585 152.273 55.8673 152.291 56.583C152.274 57.3071 152.437 58.0241 152.765 58.6699C153.056 59.2314 153.5 59.6994 154.045 60.0203C154.577 60.3287 155.183 60.4891 155.798 60.485C156.414 60.4866 157.018 60.3263 157.552 60.0203C158.124 59.7107 158.593 59.2415 158.902 58.6699C159.231 58.0305 159.393 57.3191 159.376 56.6006C159.394 55.8848 159.231 55.176 158.902 54.54Z" fill="#77706D"/>
<path d="M173.511 57.267H165.154C165.155 57.707 165.245 58.1425 165.417 58.5474C165.589 58.9523 165.841 59.3185 166.158 59.6244C166.474 59.9302 166.849 60.1694 167.259 60.3277C167.67 60.4861 168.108 60.5605 168.548 60.5464C169.213 60.5698 169.868 60.3859 170.424 60.0203C170.92 59.6798 171.293 59.1875 171.485 58.6173H173.353C173.09 59.6021 172.499 60.468 171.678 61.0725C170.768 61.7254 169.667 62.0584 168.548 62.0195C167.628 62.0312 166.721 61.8014 165.917 61.3531C165.135 60.9072 164.496 60.2471 164.076 59.4503C163.617 58.5717 163.388 57.5915 163.409 56.6006C163.388 55.6145 163.611 54.6385 164.058 53.7596C164.469 52.969 165.104 52.3166 165.882 51.8831C166.71 51.4325 167.641 51.2058 168.583 51.2255C169.501 51.2084 170.408 51.4321 171.213 51.8744C171.951 52.2827 172.559 52.8904 172.967 53.6281C173.39 54.4175 173.604 55.3018 173.59 56.1972C173.582 56.555 173.556 56.912 173.511 57.267ZM171.336 54.1454C171.051 53.676 170.637 53.2985 170.144 53.0581C169.624 52.8079 169.054 52.6818 168.478 52.6898C167.644 52.6803 166.839 52.9947 166.233 53.5667C165.592 54.1751 165.212 55.0078 165.172 55.8903H171.775C171.798 55.2787 171.646 54.6732 171.336 54.1454Z" fill="#77706D"/>
<path d="M178.895 51.7341C179.527 51.3856 180.242 51.213 180.964 51.2343V52.988H180.508C178.561 52.988 177.588 54.0431 177.588 56.1534V61.8354H175.834V51.3921H177.588V53.0932C177.884 52.5238 178.337 52.0519 178.895 51.7341Z" fill="#77706D"/>
<path d="M185.699 48.4371L181.639 50.6117V49.314L185.699 46.9289V48.4371ZM184.708 51.3921V61.8441H182.954V51.3921H184.708Z" fill="#77706D"/>
<path d="M187.663 53.7684C188.063 52.9925 188.67 52.3428 189.417 51.8919C190.183 51.4446 191.056 51.2143 191.942 51.2255C192.776 51.2034 193.599 51.4064 194.327 51.813C194.957 52.1626 195.478 52.6782 195.835 53.3036V51.3921H197.589V61.8441H195.835V59.8975C195.471 60.515 194.951 61.026 194.327 61.3794C193.604 61.7896 192.782 61.9956 191.951 61.9757C191.065 61.9873 190.193 61.7503 189.434 61.2917C188.684 60.8219 188.077 60.1545 187.681 59.3627C187.237 58.4887 187.014 57.5192 187.032 56.5392C187.012 55.5778 187.229 54.6263 187.663 53.7684ZM195.388 54.54C195.093 53.9806 194.646 53.5157 194.099 53.1984C193.555 52.8943 192.942 52.7346 192.319 52.7346C191.696 52.7346 191.083 52.8943 190.539 53.1984C189.995 53.5123 189.551 53.9746 189.259 54.5312C188.93 55.1673 188.767 55.876 188.786 56.5918C188.769 57.3159 188.931 58.0329 189.259 58.6787C189.55 59.2401 189.994 59.7081 190.539 60.0291C191.072 60.3374 191.677 60.4979 192.293 60.4938C192.908 60.4954 193.513 60.3351 194.047 60.0291C194.596 59.7102 195.043 59.2419 195.336 58.6787C195.664 58.0393 195.826 57.3278 195.809 56.6093C195.845 55.8951 195.7 55.1834 195.388 54.54Z" fill="#77706D"/>
<path d="M200.579 51.5938C201.133 50.5775 201.963 49.7386 202.973 49.1737C204.044 48.5769 205.254 48.2743 206.48 48.2968C207.944 48.2574 209.38 48.7011 210.566 49.5595C211.703 50.4038 212.507 51.6203 212.837 52.9967H209.251C208.999 52.4677 208.592 52.0276 208.085 51.7341C207.58 51.4384 207.004 51.2868 206.419 51.2956C205.96 51.2805 205.504 51.3669 205.082 51.5488C204.661 51.7307 204.285 52.0036 203.981 52.3479C203.374 53.1572 203.045 54.1418 203.045 55.1538C203.045 56.1658 203.374 57.1504 203.981 57.9597C204.285 58.304 204.661 58.5768 205.082 58.7587C205.504 58.9406 205.96 59.0271 206.419 59.0119C207.004 59.0212 207.58 58.8696 208.085 58.5735C208.582 58.2703 208.976 57.8241 209.216 57.2933H212.802C212.471 58.6648 211.667 59.8757 210.531 60.713C209.342 61.5628 207.907 62.0001 206.445 61.9581C205.219 61.9806 204.009 61.6781 202.938 61.0813C201.929 60.5188 201.099 59.683 200.544 58.6699C199.984 57.5736 199.694 56.3588 199.7 55.1276C199.707 53.8963 200.008 52.6845 200.579 51.5938Z" fill="#77706D"/>
<path d="M214.775 53.628C215.151 52.851 215.738 52.1949 216.468 51.734C217.182 51.2873 218.01 51.056 218.853 51.0676C219.538 51.0521 220.216 51.2088 220.825 51.5236C221.36 51.8003 221.811 52.2151 222.132 52.7249V51.1992H225.394V61.8441H222.132V60.3359C221.802 60.844 221.346 61.2579 220.808 61.5372C220.199 61.8516 219.52 62.0084 218.835 61.9932C217.997 62.0023 217.175 61.7678 216.468 61.318C215.738 60.8442 215.155 60.1761 214.784 59.3889C214.375 58.484 214.162 57.5026 214.161 56.5094C214.159 55.5163 214.369 54.5342 214.775 53.628ZM221.448 54.6013C221.235 54.3796 220.979 54.2033 220.695 54.0828C220.412 53.9623 220.107 53.9003 219.8 53.9003C219.492 53.9003 219.187 53.9623 218.904 54.0828C218.621 54.2033 218.365 54.3796 218.151 54.6013C217.917 54.8605 217.736 55.1638 217.62 55.4935C217.504 55.8233 217.455 56.1728 217.476 56.5216C217.437 57.2313 217.68 57.9275 218.151 58.4595C218.363 58.6834 218.619 58.8618 218.902 58.9837C219.186 59.1056 219.491 59.1684 219.8 59.1684C220.108 59.1684 220.413 59.1056 220.697 58.9837C220.98 58.8618 221.236 58.6834 221.448 58.4595C221.891 57.913 222.134 57.2312 222.136 56.5276C222.137 55.824 221.898 55.141 221.457 54.5926L221.448 54.6013Z" fill="#77706D"/>
<path d="M237.231 52.2953C238.017 53.2216 238.416 54.4148 238.345 55.6273V61.8441H235.101V56.0657C235.138 55.4626 234.94 54.8685 234.548 54.4085C234.146 54.0293 233.615 53.818 233.062 53.818C232.509 53.818 231.978 54.0293 231.576 54.4085C231.184 54.8685 230.986 55.4626 231.023 56.0657V61.8441H227.761V51.1992H231.023V52.6109C231.365 52.132 231.824 51.7486 232.356 51.4973C232.945 51.217 233.59 51.076 234.241 51.0852C234.797 51.0598 235.352 51.1547 235.869 51.3636C236.385 51.5724 236.849 51.8902 237.231 52.2953Z" fill="#77706D"/>
<path d="M240.853 49.5858C240.678 49.4292 240.54 49.237 240.446 49.0222C240.352 48.8074 240.305 48.575 240.309 48.3407C240.303 48.1021 240.348 47.865 240.442 47.6455C240.536 47.4261 240.676 47.2295 240.853 47.0692C241.236 46.7234 241.74 46.5409 242.256 46.5607C242.766 46.5427 243.263 46.7252 243.641 47.0692C243.818 47.2299 243.957 47.4265 244.051 47.6459C244.145 47.8652 244.19 48.1022 244.185 48.3407C244.188 48.575 244.142 48.8074 244.048 49.0222C243.954 49.237 243.815 49.4292 243.641 49.5858C243.263 49.9298 242.766 50.1123 242.256 50.0944C241.74 50.1141 241.236 49.9316 240.853 49.5858ZM243.878 51.1992V61.8441H240.616V51.1992H243.878Z" fill="#77706D"/>
<path d="M255.715 52.2952C256.501 53.2216 256.9 54.4148 256.829 55.6273V61.8441H253.602V56.0657C253.64 55.4626 253.442 54.8684 253.05 54.4084C252.654 54.0283 252.129 53.8124 251.581 53.8042C251.032 53.7961 250.501 53.9964 250.095 54.3646C249.703 54.8246 249.505 55.4187 249.542 56.0218V61.8003H246.28V51.1992H249.542V52.6109C249.884 52.132 250.343 51.7486 250.875 51.4973C251.464 51.217 252.109 51.076 252.76 51.0852C253.311 51.0648 253.859 51.1623 254.369 51.371C254.878 51.5796 255.337 51.8948 255.715 52.2952Z" fill="#77706D"/>
<path d="M259.074 53.628C259.447 52.8522 260.03 52.1962 260.757 51.734C261.472 51.2873 262.3 51.056 263.142 51.0676C263.828 51.0521 264.506 51.2088 265.115 51.5236C265.65 51.8003 266.101 52.2151 266.422 52.7249V51.1992H269.684V61.8441H266.422V60.3359C266.091 60.844 265.635 61.2579 265.098 61.5372C264.488 61.8516 263.81 62.0084 263.125 61.9932C262.287 62.0023 261.464 61.7678 260.757 61.318C260.027 60.8442 259.444 60.1761 259.074 59.3889C258.666 58.4834 258.455 57.5016 258.455 56.5085C258.455 55.5154 258.666 54.5336 259.074 53.628ZM265.746 54.6013C265.533 54.3796 265.277 54.2033 264.994 54.0828C264.71 53.9623 264.406 53.9003 264.098 53.9003C263.79 53.9003 263.486 53.9623 263.202 54.0828C262.919 54.2033 262.663 54.3796 262.45 54.6013C262.215 54.8605 262.035 55.1638 261.919 55.4935C261.803 55.8233 261.754 56.1728 261.774 56.5216C261.736 57.2313 261.978 57.9275 262.45 58.4595C262.662 58.6834 262.917 58.8618 263.201 58.9837C263.484 59.1056 263.789 59.1684 264.098 59.1684C264.407 59.1684 264.712 59.1056 264.995 58.9837C265.279 58.8618 265.534 58.6834 265.746 58.4595C266.188 57.912 266.43 57.2296 266.43 56.526C266.43 55.8224 266.188 55.14 265.746 54.5926V54.6013Z" fill="#77706D"/>
</g>
<defs>
<clipPath id="clip0_84_40">
<rect width="273.77" height="67" fill="white"/>
</clipPath>
</defs>
</svg>
