<svg width="32" height="32" viewBox="0 0 32 32" fill="none" xmlns="http://www.w3.org/2000/svg">
<g clip-path="url(#clip0_56_169)">
<path d="M23.484 20.688C25.4206 18.0454 26.288 14.769 25.9126 11.5143C25.5373 8.25962 23.9468 5.26668 21.4596 3.13426C18.9723 1.00184 15.7715 -0.11279 12.4977 0.0133561C9.22387 0.139502 6.11839 1.49713 3.80256 3.81462C1.48673 6.13211 0.131327 9.23856 0.00752305 12.5125C-0.116281 15.7864 1.00064 18.9863 3.13484 21.4721C5.26904 23.9579 8.26311 25.5461 11.5181 25.9192C14.773 26.2922 18.0488 25.4225 20.69 23.484H20.688C20.748 23.564 20.812 23.64 20.884 23.714L28.584 31.414C28.959 31.7893 29.4678 32.0002 29.9983 32.0004C30.5289 32.0006 31.0377 31.79 31.413 31.415C31.7883 31.04 31.9992 30.5312 31.9994 30.0007C31.9996 29.4702 31.789 28.9613 31.414 28.586L23.714 20.886C23.6425 20.8136 23.5656 20.7488 23.484 20.688ZM24 13C24 14.4445 23.7155 15.8749 23.1627 17.2095C22.6099 18.5441 21.7996 19.7567 20.7782 20.7782C19.7568 21.7996 18.5441 22.6099 17.2095 23.1627C15.875 23.7155 14.4446 24 13 24C11.5555 24 10.1251 23.7155 8.79051 23.1627C7.45593 22.6099 6.2433 21.7996 5.22185 20.7782C4.20041 19.7567 3.39015 18.5441 2.83735 17.2095C2.28455 15.8749 2.00003 14.4445 2.00003 13C2.00003 10.0826 3.15895 7.28473 5.22185 5.22183C7.28475 3.15893 10.0826 2 13 2C15.9174 2 18.7153 3.15893 20.7782 5.22183C22.8411 7.28473 24 10.0826 24 13Z" fill="#77706E"/>
</g>
<defs>
<clipPath id="clip0_56_169">
<rect width="32" height="32" fill="white"/>
</clipPath>
</defs>
</svg>
